<svg width="30" height="30" viewBox="0 0 24 24" xmlns="http://www.w3.org/2000/svg">
<path fill-rule="evenodd" clip-rule="evenodd" d="M13.0004 3C13.0004 2.44772 12.5526 2 12.0004 2C11.4481 2 11.0004 2.44772 11.0004 3V3.57087C7.60823 4.05593 5.00035 6.97223 5.00035 10.4989L5.00035 14.4993C5.00035 14.4993 5.00036 14.4991 5.00035 14.4993C5.00025 14.5012 4.99957 14.5146 4.99524 14.5409C4.99003 14.5724 4.98079 14.6152 4.96553 14.6703C4.93461 14.782 4.88539 14.9211 4.81662 15.0855C4.67876 15.4151 4.4844 15.7947 4.26944 16.1776C3.8653 16.8975 3.66158 17.7554 3.81452 18.5712C3.9758 19.4316 4.52959 20.1819 5.47541 20.542C6.32032 20.8637 7.44498 21.1579 8.93021 21.333C8.96555 21.3637 9.00734 21.3987 9.05534 21.4371C9.20563 21.5574 9.42035 21.7132 9.69171 21.8682C10.2303 22.176 11.0266 22.5 12.0004 22.5C12.9741 22.5 13.7704 22.176 14.309 21.8682C14.5804 21.7132 14.7951 21.5574 14.9454 21.4371C14.9934 21.3987 15.0352 21.3637 15.0705 21.333C16.5557 21.1579 17.6804 20.8637 18.5253 20.542C19.4711 20.1819 20.0249 19.4316 20.1862 18.5712C20.3391 17.7554 20.1354 16.8975 19.7313 16.1776C19.5163 15.7947 19.3219 15.4151 19.1841 15.0855C19.1153 14.9211 19.0661 14.782 19.0352 14.6703C19.0199 14.6152 19.0107 14.5724 19.0055 14.5409C19.0011 14.5146 19.0005 14.5015 19.0004 14.4996C19.0004 14.4994 19.0004 14.4996 19.0004 14.4996L19.0004 14.4911V10.4994C19.0004 6.9728 16.3925 4.05601 13.0004 3.57088V3ZM7.00035 10.4989C7.00035 7.73772 9.23869 5.5 12.0004 5.5C14.7619 5.5 17.0004 7.73809 17.0004 10.4994V14.5C17.0004 14.9629 17.1738 15.4623 17.3389 15.8571C17.5183 16.2861 17.7534 16.74 17.9873 17.1566C18.2146 17.5616 18.2689 17.9444 18.2204 18.2027C18.1803 18.4166 18.0735 18.574 17.8136 18.6729C16.7387 19.0822 14.9243 19.5 12.0004 19.5C9.07642 19.5 7.26196 19.0822 6.1871 18.6729C5.92724 18.574 5.82036 18.4166 5.78028 18.2027C5.73185 17.9444 5.78606 17.5616 6.01344 17.1566C6.24729 16.74 6.48238 16.2861 6.66177 15.8571C6.8269 15.4623 7.00035 14.9629 7.00035 14.5V10.4989Z" />
</svg>
