<svg width="20" height="20" viewBox="0 0 20 20" fill="none" xmlns="http://www.w3.org/2000/svg">
<path fill-rule="evenodd" clip-rule="evenodd" d="M17.1635 2.42463C16.0413 1.30247 14.2219 1.30247 13.0998 2.42463L5.99521 9.52918C5.48522 10.0392 5.1544 10.7008 5.0524 11.4148L4.84653 12.8559C4.68939 13.9559 5.6322 14.8987 6.73214 14.7416L8.17328 14.5357C8.88727 14.4337 9.54891 14.1029 10.0589 13.5929L17.1635 6.48832C18.2856 5.36616 18.2856 3.54678 17.1635 2.42463ZM14.4528 3.45839C14.9226 3.13817 15.5682 3.18642 15.9849 3.60314C16.4017 4.01985 16.4499 4.66551 16.1297 5.13524L14.4528 3.45839ZM13.2594 4.62199L14.9661 6.32866L8.88039 12.4144C8.6254 12.6694 8.29458 12.8348 7.93758 12.8858L6.49644 13.0916L6.70232 11.6505C6.75332 11.2935 6.91873 10.9627 7.17372 10.7077L13.2594 4.62199Z" fill="#366CDA"/>
<path d="M5.00008 1.6663C3.15913 1.6663 1.66675 3.15869 1.66675 4.99964V14.9996C1.66675 16.8406 3.15913 18.333 5.00008 18.333H15.0001C16.841 18.333 18.3334 16.8406 18.3334 14.9996V9.99964C18.3334 9.5394 17.9603 9.1663 17.5001 9.1663C17.0398 9.1663 16.6667 9.5394 16.6667 9.99964V14.9996C16.6667 15.9201 15.9206 16.6663 15.0001 16.6663H5.00008C4.07961 16.6663 3.33341 15.9201 3.33341 14.9996V4.99964C3.33341 4.07916 4.07961 3.33297 5.00008 3.33297H7.23692C7.69716 3.33297 8.07026 2.95987 8.07026 2.49964C8.07026 2.0394 7.69716 1.6663 7.23692 1.6663H5.00008Z" fill="#366CDA"/>
</svg>
