<svg width="24" height="25" viewBox="0 0 24 25" fill="none" xmlns="http://www.w3.org/2000/svg">
<path fill-rule="evenodd" clip-rule="evenodd" d="M4 12C2.61929 12 1.5 10.8807 1.5 9.5L1.5 4.5C1.5 3.11929 2.61929 2 4 2H9C10.3807 2 11.5 3.11929 11.5 4.5V9.5C11.5 10.8807 10.3807 12 9 12H4ZM3.5 9.5C3.5 9.77614 3.72386 10 4 10L9 10C9.27614 10 9.5 9.77614 9.5 9.5V4.5C9.5 4.22386 9.27614 4 9 4L4 4C3.72386 4 3.5 4.22386 3.5 4.5L3.5 9.5Z" fill="#243464"/>
<path fill-rule="evenodd" clip-rule="evenodd" d="M7.67604 13.6942C6.75039 12.7686 5.24961 12.7686 4.32396 13.6942L1.69424 16.324C0.768587 17.2496 0.768588 18.7504 1.69424 19.676L4.32396 22.3058C5.24961 23.2314 6.75039 23.2314 7.67604 22.3058L10.3058 19.676C11.2314 18.7504 11.2314 17.2496 10.3058 16.324L7.67604 13.6942ZM5.73818 15.1085C5.88278 14.9639 6.11722 14.9639 6.26182 15.1085L8.89155 17.7382C9.03615 17.8828 9.03615 18.1172 8.89155 18.2618L6.26182 20.8915C6.11722 21.0361 5.88278 21.0361 5.73818 20.8916L3.10845 18.2618C2.96385 18.1172 2.96385 17.8828 3.10845 17.7382L5.73818 15.1085Z" fill="#243464"/>
<path fill-rule="evenodd" clip-rule="evenodd" d="M12.5 20.5C12.5 21.8807 13.6193 23 15 23H20C21.3807 23 22.5 21.8807 22.5 20.5V15.5C22.5 14.1193 21.3807 13 20 13H15C13.6193 13 12.5 14.1193 12.5 15.5V20.5ZM15 21C14.7239 21 14.5 20.7761 14.5 20.5V15.5C14.5 15.2239 14.7239 15 15 15H20C20.2761 15 20.5 15.2239 20.5 15.5V20.5C20.5 20.7761 20.2761 21 20 21H15Z" fill="#243464"/>
<path fill-rule="evenodd" clip-rule="evenodd" d="M12.5 7C12.5 9.76142 14.7386 12 17.5 12C20.2614 12 22.5 9.76142 22.5 7C22.5 4.23858 20.2614 2 17.5 2C14.7386 2 12.5 4.23858 12.5 7ZM17.5 4C19.1569 4 20.5 5.34315 20.5 7C20.5 8.65685 19.1569 10 17.5 10C15.8431 10 14.5 8.65685 14.5 7C14.5 5.34315 15.8431 4 17.5 4Z" fill="#243464"/>
</svg>
