<svg width="40" height="40" viewBox="0 0 40 40" fill="none" xmlns="http://www.w3.org/2000/svg">
<path fill-rule="evenodd" clip-rule="evenodd" d="M22.1086 12.1605C21.1354 10.6132 18.8646 10.6132 17.8914 12.1605L16.3134 14.6693C16.198 14.8528 16.0129 14.9871 15.7956 15.0401L12.8943 15.7484C11.1127 16.1833 10.3923 18.3313 11.5906 19.7366L13.5167 21.9954C13.658 22.1612 13.727 22.3731 13.7115 22.5861L13.4963 25.5326C13.3621 27.3706 15.2177 28.6766 16.9087 27.9969L19.677 26.8841C19.8839 26.8009 20.1161 26.8009 20.323 26.8841L23.0913 27.9969C24.7823 28.6766 26.6379 27.3706 26.5037 25.5326L26.2885 22.5861C26.273 22.3731 26.342 22.1612 26.4833 21.9954L28.4094 19.7366C29.6077 18.3313 28.8873 16.1833 27.1057 15.7484L24.2044 15.0401C23.9871 14.9871 23.802 14.8528 23.6866 14.6693L22.1086 12.1605ZM19.2764 13.0316C19.608 12.5043 20.392 12.5043 20.7236 13.0316L22.3016 15.5404C22.6453 16.0869 23.1896 16.4766 23.8164 16.6296L26.7177 17.3378C27.3355 17.4886 27.559 18.2124 27.1644 18.675L25.2384 20.9338C24.8193 21.4252 24.6097 22.0609 24.6568 22.7053L24.8719 25.6518C24.9156 26.2505 24.3 26.7194 23.7016 26.4788L20.9333 25.366C20.3347 25.1254 19.6653 25.1254 19.0667 25.366L16.2984 26.4788C15.7 26.7194 15.0844 26.2505 15.1281 25.6518L15.3432 22.7053C15.3903 22.0609 15.1807 21.4252 14.7616 20.9338L12.8356 18.675C12.441 18.2124 12.6645 17.4886 13.2823 17.3378L16.1836 16.6296C16.8104 16.4766 17.3547 16.0869 17.6984 15.5404L19.2764 13.0316Z" fill="#2F3237"/>
</svg>
