<svg width="40" height="38" viewBox="0 0 40 38" fill="none" xmlns="http://www.w3.org/2000/svg">
<path fill-rule="evenodd" clip-rule="evenodd" d="M14.3543 12.25C12.8701 12.25 11.667 13.3328 11.667 14.6686V22.75C11.667 24.4069 13.1594 25.75 15.0003 25.75H25.0003C26.8413 25.75 28.3337 24.4069 28.3337 22.75V17.9167C28.3337 16.2601 26.8424 14.9167 25.0011 14.9167H22.4084C22.3751 14.8726 22.3368 14.8166 22.2935 14.7468C22.1761 14.5579 22.0619 14.3358 21.9308 14.0811C21.8998 14.0207 21.8677 13.9584 21.8345 13.8943C21.6751 13.587 21.4821 13.2261 21.2586 12.9398C21.0731 12.7021 20.6677 12.25 20.0118 12.25H14.3543ZM20.4067 14.6888C20.4447 14.7628 20.484 14.8393 20.5243 14.9167H13.3337V14.6686C13.3337 14.1613 13.7906 13.75 14.3543 13.75H19.8519C19.8643 13.7641 19.8786 13.7813 19.8949 13.8021C20.022 13.965 20.1589 14.2099 20.3242 14.5287C20.3509 14.5801 20.3784 14.6338 20.4067 14.6888ZM15.0003 24.25C14.0798 24.25 13.3337 23.5784 13.3337 22.75V16.4167H22.0655C22.0677 16.4167 22.0699 16.4167 22.0721 16.4168C22.0816 16.4169 22.0911 16.4168 22.1006 16.4167H25.0011C25.9213 16.4167 26.667 17.0879 26.667 17.9167V18.25H25.0003C23.6196 18.25 22.5003 19.2574 22.5003 20.5C22.5003 21.7426 23.6196 22.75 25.0003 22.75H26.667C26.667 23.5784 25.9208 24.25 25.0003 24.25H15.0003ZM24.167 20.5C24.167 20.0858 24.5401 19.75 25.0003 19.75H26.667V21.25H25.0003C24.5401 21.25 24.167 20.9142 24.167 20.5ZM19.7931 13.6924C19.7932 13.692 19.7966 13.6942 19.8034 13.7002C19.7966 13.6958 19.7931 13.6928 19.7931 13.6924Z" fill="#2F3237"/>
</svg>
