<svg width="40" height="40" viewBox="0 0 40 40" fill="none" xmlns="http://www.w3.org/2000/svg">
<path d="M15.0003 22.4993C14.5401 22.4993 14.167 22.1263 14.167 21.666C14.167 21.2058 14.5401 20.8327 15.0003 20.8327C15.4606 20.8327 15.8337 21.2058 15.8337 21.666C15.8337 22.1263 15.4606 22.4993 15.0003 22.4993Z" fill="#2F3237"/>
<path d="M17.5003 21.666C17.5003 22.1263 17.8734 22.4993 18.3337 22.4993C18.7939 22.4993 19.167 22.1263 19.167 21.666C19.167 21.2058 18.7939 20.8327 18.3337 20.8327C17.8734 20.8327 17.5003 21.2058 17.5003 21.666Z" fill="#2F3237"/>
<path d="M21.667 22.4993C21.2068 22.4993 20.8337 22.1263 20.8337 21.666C20.8337 21.2058 21.2068 20.8327 21.667 20.8327C22.1272 20.8327 22.5003 21.2058 22.5003 21.666C22.5003 22.1263 22.1272 22.4993 21.667 22.4993Z" fill="#2F3237"/>
<path fill-rule="evenodd" clip-rule="evenodd" d="M27.0654 21.206L24.9973 21.4645C24.9993 21.5315 25.0003 21.5986 25.0003 21.666C25.0003 25.3479 22.0156 28.3327 18.3337 28.3327C17.7829 28.3327 17.2466 28.2657 16.733 28.1391L13.1506 27.6913C12.2695 27.5812 11.6572 26.7598 11.8032 25.884L12.0229 24.5655L11.8606 23.2666C11.734 22.7531 11.667 22.2168 11.667 21.666C11.667 17.9841 14.6518 14.9993 18.3337 14.9993C18.4284 14.9993 18.5226 15.0013 18.6163 15.0052C19.3011 13.0606 21.1536 11.666 23.3337 11.666C26.0951 11.666 28.3337 13.9046 28.3337 16.666C28.3337 17.0739 28.2846 17.4714 28.1918 17.8526L28.0819 18.7322L28.2331 19.6397C28.3596 20.3988 27.829 21.1106 27.0654 21.206ZM23.3337 13.3327C25.1746 13.3327 26.667 14.8251 26.667 16.666C26.667 16.9527 26.631 17.2298 26.5637 17.4935L26.5507 17.5443L26.4224 18.5707C26.4062 18.7005 26.4089 18.8321 26.4304 18.9612L26.5356 19.5926L24.7406 19.817C24.119 17.6594 22.437 15.951 20.2952 15.2926C20.8187 14.1365 21.9831 13.3327 23.3337 13.3327ZM18.3337 16.666C15.5722 16.666 13.3337 18.9046 13.3337 21.666C13.3337 22.0954 13.3876 22.511 13.4887 22.907L13.5016 22.9577L13.6786 24.3738C13.6974 24.5237 13.6943 24.6755 13.6694 24.8245L13.465 26.051L17.042 26.4981L17.0927 26.511C17.4886 26.6121 17.9042 26.666 18.3337 26.666C21.0951 26.666 23.3337 24.4274 23.3337 21.666C23.3337 18.9046 21.0951 16.666 18.3337 16.666Z" fill="#2F3237"/>
</svg>
