<svg width="20" height="18" viewBox="0 0 20 18" fill="none" xmlns="http://www.w3.org/2000/svg">
<path fill-rule="evenodd" clip-rule="evenodd" d="M17.0675 5.99075C16.7192 4.74528 15.5169 3.85803 14.1209 3.75919C14.0506 3.56021 13.97 3.36334 13.8778 3.17132C13.5779 2.54651 13.1385 1.93749 12.4911 1.48289C11.8315 1.01981 11.0022 0.75 10.0003 0.75C8.99843 0.75 8.16912 1.01981 7.50961 1.48289C6.86219 1.93749 6.42274 2.54651 6.12283 3.17132C6.03066 3.36334 5.95008 3.56021 5.87973 3.75919C4.48377 3.85802 3.28143 4.74528 2.93312 5.99075C2.10234 8.96141 1.69534 11.1474 1.66842 12.7515C1.6417 14.3441 1.98711 15.5154 2.85637 16.2736C3.71418 17.0218 4.89859 17.2009 6.05656 17.2405C6.64987 17.2608 7.28994 17.2449 7.943 17.2254L8.18241 17.2181C8.76882 17.2002 9.37186 17.1818 10.0003 17.1818C10.6288 17.1818 11.2317 17.2002 11.8181 17.2181L12.0576 17.2254C12.7107 17.2449 13.3508 17.2608 13.9441 17.2405C15.1021 17.2009 16.2865 17.0218 17.1443 16.2736C18.0135 15.5154 18.3589 14.3441 18.3322 12.7515C18.3053 11.1474 17.8983 8.96141 17.0675 5.99075ZM7.08365 6.75C7.08366 6.31638 7.1134 5.78945 7.20508 5.25H12.7956C12.8872 5.78945 12.917 6.31638 12.917 6.75C12.917 7.16421 13.2901 7.5 13.7503 7.5C14.2106 7.5 14.5837 7.16421 14.5837 6.75C14.5837 6.36407 14.5633 5.88372 14.4946 5.36428C14.9605 5.53936 15.324 5.90199 15.4513 6.35688C16.2732 9.29584 16.6418 11.3469 16.6657 12.7742C16.6899 14.2131 16.3614 14.8676 15.9844 15.1965C15.5959 15.5353 14.9616 15.7046 13.8808 15.7416C13.3547 15.7596 12.7704 15.7459 12.113 15.7262L11.876 15.719C11.2917 15.7012 10.6591 15.6818 10.0003 15.6818C9.34151 15.6818 8.70893 15.7012 8.12462 15.719L7.88762 15.7262C7.2303 15.7459 6.64597 15.7596 6.11989 15.7416C5.03908 15.7046 4.40477 15.5353 4.01629 15.1965C3.63924 14.8676 3.31076 14.2131 3.3349 12.7742C3.35885 11.3469 3.72746 9.29584 4.54938 6.35688C4.67659 5.90199 5.04016 5.53936 5.5061 5.36428C5.43738 5.88372 5.41699 6.36406 5.41699 6.75C5.41698 7.16421 5.79008 7.5 6.25032 7.5C6.71055 7.5 7.08365 7.16422 7.08365 6.75ZM11.4659 2.66554C11.8267 2.91893 12.116 3.2886 12.34 3.75H7.66065C7.88467 3.2886 8.17394 2.91893 8.53481 2.66554C8.8878 2.41769 9.35224 2.25 10.0003 2.25C10.6484 2.25 11.1129 2.41769 11.4659 2.66554Z" fill="#2F3237"/>
</svg>
