<svg width="40" height="40" viewBox="0 0 40 40" fill="none" xmlns="http://www.w3.org/2000/svg">
<path d="M28 21.35V23.05C28 24.4583 26.8807 25.6 25.5 25.6C24.1193 25.6 23 24.4583 23 23.05V21.35C23 19.9417 24.1193 18.8 25.5 18.8C26.8807 18.8 28 19.9417 28 21.35ZM28 21.35V19.65C28 15.425 24.6421 12 20.5 12C16.3579 12 13 15.425 13 19.65V21.35M13 21.35V23.05C13 24.4583 14.1193 25.6 15.5 25.6C16.8807 25.6 18 24.4583 18 23.05V21.35C18 19.9417 16.8807 18.8 15.5 18.8C14.1193 18.8 13 19.9417 13 21.35ZM28 22.2V23.9C28 26.7167 25.7614 29 23 29H20.5" stroke="#2F3237" stroke-width="1.5" stroke-linecap="round" stroke-linejoin="round"/>
</svg>
