<svg width="40" height="40" viewBox="0 0 40 40" fill="none" xmlns="http://www.w3.org/2000/svg">
<path fill-rule="evenodd" clip-rule="evenodd" d="M16.6667 16.9045V26.6672C16.6667 27.5877 15.9206 28.3338 15.0001 28.3338H13.3334C12.4129 28.3338 11.6667 27.5877 11.6667 26.6672V13.3338C11.6667 12.4134 12.4129 11.6672 13.3334 11.6672H15.0001C15.6238 11.6672 16.1675 12.0098 16.4532 12.5171C16.657 12.3227 16.9128 12.1774 17.2059 12.1055L18.8246 11.7085C19.7186 11.4893 20.621 12.0363 20.8403 12.9302L23.3334 23.0965V13.3338C23.3334 12.4134 24.0796 11.6672 25.0001 11.6672H26.6667C27.5872 11.6672 28.3334 12.4134 28.3334 13.3338V26.6672C28.3334 27.5877 27.5872 28.3338 26.6667 28.3338H25.0001C24.3764 28.3338 23.8327 27.9912 23.5469 27.4839C23.3432 27.6783 23.0874 27.8236 22.7943 27.8955L21.1755 28.2925C20.2816 28.5117 19.3791 27.9647 19.1599 27.0708L16.6667 16.9045ZM17.6029 13.7242L19.2216 13.3272L22.3973 26.2768L20.7786 26.6738L17.6029 13.7242ZM15.0001 13.3338L13.3334 13.3338V26.6672H15.0001V13.3338ZM26.6667 13.3338L25.0001 13.3338V26.6672H26.6667V13.3338Z" fill="#2F3237"/>
</svg>
