<svg width="40" height="40" viewBox="0 0 40 40" fill="none" xmlns="http://www.w3.org/2000/svg">
<path d="M20.1171 18.4534C20.3523 18.277 20.4087 17.9476 20.2456 17.703C20.0517 17.4121 19.6402 17.3713 19.393 17.6185L18.9229 18.0886C18.5975 18.414 18.0698 18.414 17.7444 18.0886C17.419 17.7632 17.419 17.2355 17.7444 16.9101L18.2145 16.44C19.2054 15.4491 20.8551 15.6125 21.6324 16.7785C22.2861 17.7591 22.0599 19.0796 21.1171 19.7868L21.0766 19.8171C20.9237 19.9318 20.8337 20.1119 20.8337 20.3031L20.8337 20.416C20.8337 20.8763 20.4606 21.2494 20.0003 21.2493C19.5401 21.2493 19.167 20.8763 19.167 20.416L19.167 20.3031C19.167 19.5873 19.504 18.9133 20.0766 18.4838L20.1171 18.4534Z" fill="#2F3237"/>
<path d="M19.167 22.916C19.167 23.3763 19.5401 23.7493 20.0003 23.7493C20.4606 23.7493 20.8337 23.3763 20.8337 22.916C20.8337 22.4558 20.4606 22.0827 20.0003 22.0827C19.5401 22.0827 19.167 22.4558 19.167 22.916Z" fill="#2F3237"/>
<path fill-rule="evenodd" clip-rule="evenodd" d="M11.667 19.9993C11.667 15.397 15.398 11.666 20.0003 11.666C24.6027 11.666 28.3337 15.397 28.3337 19.9993C28.3337 24.6017 24.6027 28.3327 20.0003 28.3327C15.398 28.3327 11.667 24.6017 11.667 19.9993ZM20.0003 13.3327C16.3184 13.3327 13.3337 16.3175 13.3337 19.9993C13.3337 23.6812 16.3184 26.666 20.0003 26.666C23.6822 26.666 26.667 23.6812 26.667 19.9993C26.667 16.3175 23.6822 13.3327 20.0003 13.3327Z" fill="#2F3237"/>
</svg>
