<svg width="89" height="17" viewBox="0 0 89 17" fill="none" xmlns="http://www.w3.org/2000/svg">
<path fill-rule="evenodd" clip-rule="evenodd" d="M10.218 2.44576C9.42489 1.18475 7.57442 1.18475 6.78129 2.44576L5.49537 4.49026C5.40131 4.6398 5.25047 4.74917 5.07334 4.79241L2.70899 5.36958C1.25715 5.72399 0.670024 7.47452 1.64657 8.61974L3.21619 10.4605C3.33139 10.5956 3.38761 10.7683 3.37493 10.9419L3.1996 13.3431C3.09022 14.8409 4.6024 15.9052 5.98042 15.3513L8.23641 14.4444C8.40507 14.3766 8.59425 14.3766 8.76289 14.4444L11.0189 15.3513C12.3969 15.9052 13.9091 14.8409 13.7997 13.3431L13.6244 10.9419C13.6117 10.7683 13.6679 10.5956 13.7831 10.4605L15.3527 8.61974C16.3293 7.47452 15.7422 5.72399 14.2903 5.36958L11.926 4.79241C11.7488 4.74917 11.598 4.6398 11.5039 4.49026L10.218 2.44576ZM7.90994 3.15564C8.18023 2.7259 8.81908 2.7259 9.08937 3.15564L10.3753 5.20014C10.6554 5.64548 11.0989 5.96301 11.6098 6.08771L13.9741 6.66488C14.4776 6.78778 14.6597 7.37758 14.3382 7.75461L12.7686 9.59535C12.4271 9.99584 12.2562 10.5138 12.2946 11.039L12.4699 13.4402C12.5055 13.9281 12.0038 14.3102 11.5162 14.1142L9.26019 13.2073C8.77242 13.0112 8.22689 13.0112 7.73912 13.2073L5.48313 14.1142C4.99548 14.3102 4.49376 13.9281 4.52939 13.4402L4.70473 11.039C4.74307 10.5138 4.57225 9.99584 4.23075 9.59535L2.66113 7.75461C2.33963 7.37758 2.52174 6.78778 3.02519 6.66488L5.38954 6.08771C5.90037 5.96301 6.34392 5.64548 6.62402 5.20014L7.90994 3.15564Z" fill="#F1A82E"/>
<path d="M25.3459 2.80005C25.8776 1.95467 27.1222 1.95467 27.654 2.80005L28.9399 4.84455C29.127 5.14199 29.4242 5.35544 29.7681 5.43941L32.1325 6.01658C33.1101 6.25523 33.4947 7.42539 32.8457 8.18652L31.2761 10.0273C31.0478 10.2951 30.9342 10.6404 30.9597 10.9898L31.1351 13.391C31.2076 14.3838 30.2006 15.107 29.2678 14.7321L27.0118 13.8252C26.6836 13.6933 26.3162 13.6933 25.988 13.8252L23.732 14.7321C22.7992 15.107 21.7923 14.3838 21.8648 13.391L22.0401 10.9898C22.0656 10.6404 21.9521 10.2951 21.7237 10.0273L20.1541 8.18652C19.5051 7.42539 19.8897 6.25523 20.8674 6.01658L23.2317 5.43941C23.5757 5.35544 23.8729 5.14199 24.06 4.84455L25.3459 2.80005Z" fill="#F1A82E"/>
<path d="M43.3459 2.80005C43.8776 1.95467 45.1222 1.95467 45.654 2.80005L46.9399 4.84455C47.127 5.14199 47.4242 5.35544 47.7681 5.43941L50.1325 6.01658C51.1101 6.25523 51.4947 7.42539 50.8457 8.18652L49.2761 10.0273C49.0478 10.2951 48.9342 10.6404 48.9597 10.9898L49.1351 13.391C49.2076 14.3838 48.2006 15.107 47.2678 14.7321L45.0118 13.8252C44.6836 13.6933 44.3162 13.6933 43.988 13.8252L41.732 14.7321C40.7992 15.107 39.7923 14.3838 39.8648 13.391L40.0401 10.9898C40.0656 10.6404 39.9521 10.2951 39.7237 10.0273L38.1541 8.18652C37.5051 7.42539 37.8897 6.25523 38.8674 6.01658L41.2317 5.43941C41.5757 5.35544 41.8729 5.14199 42.06 4.84455L43.3459 2.80005Z" fill="#F1A82E"/>
<path d="M61.3459 2.80005C61.8776 1.95467 63.1222 1.95467 63.654 2.80005L64.9399 4.84455C65.127 5.14199 65.4242 5.35544 65.7681 5.43941L68.1325 6.01658C69.1101 6.25523 69.4947 7.42539 68.8457 8.18652L67.2761 10.0273C67.0478 10.2951 66.9342 10.6404 66.9597 10.9898L67.1351 13.391C67.2076 14.3838 66.2006 15.107 65.2678 14.7321L63.0118 13.8252C62.6836 13.6933 62.3162 13.6933 61.988 13.8252L59.732 14.7321C58.7992 15.107 57.7923 14.3838 57.8648 13.391L58.0401 10.9898C58.0656 10.6404 57.9521 10.2951 57.7237 10.0273L56.1541 8.18652C55.5051 7.42539 55.8897 6.25523 56.8674 6.01658L59.2317 5.43941C59.5757 5.35544 59.8729 5.14199 60.06 4.84455L61.3459 2.80005Z" fill="#F1A82E"/>
<path d="M79.3459 2.80005C79.8776 1.95467 81.1222 1.95467 81.654 2.80005L82.9399 4.84455C83.127 5.14199 83.4242 5.35544 83.7681 5.43941L86.1325 6.01658C87.1101 6.25523 87.4947 7.42539 86.8457 8.18652L85.2761 10.0273C85.0478 10.2951 84.9342 10.6404 84.9597 10.9898L85.1351 13.391C85.2076 14.3838 84.2006 15.107 83.2678 14.7321L81.0118 13.8252C80.6836 13.6933 80.3162 13.6933 79.988 13.8252L77.732 14.7321C76.7992 15.107 75.7923 14.3838 75.8648 13.391L76.0401 10.9898C76.0656 10.6404 75.9521 10.2951 75.7237 10.0273L74.1541 8.18652C73.5051 7.42539 73.8897 6.25523 74.8674 6.01658L77.2317 5.43941C77.5757 5.35544 77.8729 5.14199 78.06 4.84455L79.3459 2.80005Z" fill="#F1A82E"/>
</svg>
