<svg width="40" height="40" viewBox="0 0 40 40" fill="none" xmlns="http://www.w3.org/2000/svg">
<path d="M17.1416 22.7254L22.5916 17.2754" stroke="#292D32" stroke-width="1.5" stroke-linecap="round" stroke-linejoin="round"/>
<path d="M17.483 18.6418C18.0491 18.6418 18.508 18.1829 18.508 17.6168C18.508 17.0507 18.0491 16.5918 17.483 16.5918C16.9169 16.5918 16.458 17.0507 16.458 17.6168C16.458 18.1829 16.9169 18.6418 17.483 18.6418Z" stroke="#292D32" stroke-width="1.5" stroke-linecap="round" stroke-linejoin="round"/>
<path d="M22.9332 23.4074C23.4993 23.4074 23.9582 22.9485 23.9582 22.3824C23.9582 21.8163 23.4993 21.3574 22.9332 21.3574C22.3671 21.3574 21.9082 21.8163 21.9082 22.3824C21.9082 22.9485 22.3671 23.4074 22.9332 23.4074Z" stroke="#292D32" stroke-width="1.5" stroke-linecap="round" stroke-linejoin="round"/>
<path d="M20.0003 28.3327C24.6027 28.3327 28.3337 24.6017 28.3337 19.9993C28.3337 15.397 24.6027 11.666 20.0003 11.666C15.398 11.666 11.667 15.397 11.667 19.9993C11.667 24.6017 15.398 28.3327 20.0003 28.3327Z" stroke="#292D32" stroke-width="1.5" stroke-linecap="round" stroke-linejoin="round"/>
</svg>
